<mxfile host="app.diagrams.net" modified="2022-03-24T11:53:22.385Z" agent="5.0 (Windows NT 10.0; Win64; x64) AppleWebKit/537.36 (KHTML, like Gecko) Chrome/99.0.4844.74 Safari/537.36 Edg/99.0.1150.46" etag="rndN0jORqU_T5vgnXaKD" version="17.1.5" type="github">
  <diagram id="aF8M_g0TY6EfnHbTfGHt" name="第 1 页">
    <mxGraphModel dx="1028" dy="499" grid="1" gridSize="10" guides="1" tooltips="1" connect="1" arrows="1" fold="1" page="1" pageScale="1" pageWidth="827" pageHeight="1169" math="0" shadow="0">
      <root>
        <mxCell id="0" />
        <mxCell id="1" parent="0" />
        <mxCell id="LBJ0s7DJdTyZ2ixBBCLc-50" value="" style="whiteSpace=wrap;html=1;aspect=fixed;fontSize=15;fillColor=#f8cecc;strokeColor=#b85450;" vertex="1" parent="1">
          <mxGeometry x="80" y="230" width="200" height="200" as="geometry" />
        </mxCell>
        <mxCell id="LBJ0s7DJdTyZ2ixBBCLc-2" value="" style="rounded=0;whiteSpace=wrap;html=1;fillColor=#d5e8d4;strokeColor=#82b366;" vertex="1" parent="1">
          <mxGeometry x="345" y="190" width="240" height="420" as="geometry" />
        </mxCell>
        <mxCell id="LBJ0s7DJdTyZ2ixBBCLc-3" value="" style="rounded=0;whiteSpace=wrap;html=1;fillColor=#fff2cc;strokeColor=#d6b656;" vertex="1" parent="1">
          <mxGeometry x="365" y="215" width="200" height="70" as="geometry" />
        </mxCell>
        <mxCell id="LBJ0s7DJdTyZ2ixBBCLc-4" value="" style="rounded=0;whiteSpace=wrap;html=1;fillColor=#fff2cc;strokeColor=#d6b656;" vertex="1" parent="1">
          <mxGeometry x="365" y="315" width="200" height="70" as="geometry" />
        </mxCell>
        <mxCell id="LBJ0s7DJdTyZ2ixBBCLc-5" value="" style="rounded=0;whiteSpace=wrap;html=1;fillColor=#fff2cc;strokeColor=#d6b656;" vertex="1" parent="1">
          <mxGeometry x="365" y="415" width="200" height="70" as="geometry" />
        </mxCell>
        <mxCell id="LBJ0s7DJdTyZ2ixBBCLc-6" value="" style="rounded=0;whiteSpace=wrap;html=1;fillColor=#fff2cc;strokeColor=#d6b656;" vertex="1" parent="1">
          <mxGeometry x="365" y="515" width="200" height="70" as="geometry" />
        </mxCell>
        <mxCell id="LBJ0s7DJdTyZ2ixBBCLc-7" value="&lt;font style=&quot;font-size: 17px&quot; color=&quot;#ff0000&quot;&gt;Cluster&lt;/font&gt;" style="text;html=1;strokeColor=none;fillColor=none;align=center;verticalAlign=middle;whiteSpace=wrap;rounded=0;" vertex="1" parent="1">
          <mxGeometry x="345" y="185" width="60" height="30" as="geometry" />
        </mxCell>
        <mxCell id="LBJ0s7DJdTyZ2ixBBCLc-8" value="namesapce1" style="text;html=1;strokeColor=none;fillColor=none;align=center;verticalAlign=middle;whiteSpace=wrap;rounded=0;fontSize=17;fontColor=#FF0000;" vertex="1" parent="1">
          <mxGeometry x="445" y="215" width="120" height="30" as="geometry" />
        </mxCell>
        <mxCell id="LBJ0s7DJdTyZ2ixBBCLc-10" value="namesapce1" style="text;html=1;strokeColor=none;fillColor=none;align=center;verticalAlign=middle;whiteSpace=wrap;rounded=0;fontSize=17;fontColor=#FF0000;" vertex="1" parent="1">
          <mxGeometry x="445" y="515" width="120" height="30" as="geometry" />
        </mxCell>
        <mxCell id="LBJ0s7DJdTyZ2ixBBCLc-11" value="namesapce1" style="text;html=1;strokeColor=none;fillColor=none;align=center;verticalAlign=middle;whiteSpace=wrap;rounded=0;fontSize=17;fontColor=#FF0000;" vertex="1" parent="1">
          <mxGeometry x="445" y="415" width="120" height="30" as="geometry" />
        </mxCell>
        <mxCell id="LBJ0s7DJdTyZ2ixBBCLc-12" value="namesapce1" style="text;html=1;strokeColor=none;fillColor=none;align=center;verticalAlign=middle;whiteSpace=wrap;rounded=0;fontSize=17;fontColor=#FF0000;" vertex="1" parent="1">
          <mxGeometry x="445" y="315" width="120" height="30" as="geometry" />
        </mxCell>
        <mxCell id="LBJ0s7DJdTyZ2ixBBCLc-13" value="" style="ellipse;whiteSpace=wrap;html=1;aspect=fixed;fontSize=17;fontColor=#FF0000;" vertex="1" parent="1">
          <mxGeometry x="415" y="245" width="30" height="30" as="geometry" />
        </mxCell>
        <mxCell id="LBJ0s7DJdTyZ2ixBBCLc-14" value="" style="ellipse;whiteSpace=wrap;html=1;aspect=fixed;fontSize=17;fontColor=#FF0000;" vertex="1" parent="1">
          <mxGeometry x="385" y="220" width="30" height="30" as="geometry" />
        </mxCell>
        <mxCell id="LBJ0s7DJdTyZ2ixBBCLc-16" value="" style="ellipse;whiteSpace=wrap;html=1;aspect=fixed;fontSize=17;fontColor=#FF0000;" vertex="1" parent="1">
          <mxGeometry x="385" y="320" width="30" height="30" as="geometry" />
        </mxCell>
        <mxCell id="LBJ0s7DJdTyZ2ixBBCLc-17" value="" style="ellipse;whiteSpace=wrap;html=1;aspect=fixed;fontSize=17;fontColor=#FF0000;" vertex="1" parent="1">
          <mxGeometry x="415" y="345" width="30" height="30" as="geometry" />
        </mxCell>
        <mxCell id="LBJ0s7DJdTyZ2ixBBCLc-19" value="" style="ellipse;whiteSpace=wrap;html=1;aspect=fixed;fontSize=17;fontColor=#FF0000;" vertex="1" parent="1">
          <mxGeometry x="385" y="420" width="30" height="30" as="geometry" />
        </mxCell>
        <mxCell id="LBJ0s7DJdTyZ2ixBBCLc-20" value="" style="ellipse;whiteSpace=wrap;html=1;aspect=fixed;fontSize=17;fontColor=#FF0000;" vertex="1" parent="1">
          <mxGeometry x="415" y="445" width="30" height="30" as="geometry" />
        </mxCell>
        <mxCell id="LBJ0s7DJdTyZ2ixBBCLc-21" value="" style="ellipse;whiteSpace=wrap;html=1;aspect=fixed;fontSize=17;fillColor=#dae8fc;strokeColor=#6c8ebf;" vertex="1" parent="1">
          <mxGeometry x="455" y="445" width="30" height="30" as="geometry" />
        </mxCell>
        <mxCell id="LBJ0s7DJdTyZ2ixBBCLc-22" value="" style="ellipse;whiteSpace=wrap;html=1;aspect=fixed;fontSize=17;fontColor=#FF0000;" vertex="1" parent="1">
          <mxGeometry x="385" y="520" width="30" height="30" as="geometry" />
        </mxCell>
        <mxCell id="LBJ0s7DJdTyZ2ixBBCLc-23" value="" style="ellipse;whiteSpace=wrap;html=1;aspect=fixed;fontSize=17;fillColor=#dae8fc;strokeColor=#6c8ebf;" vertex="1" parent="1">
          <mxGeometry x="415" y="545" width="30" height="30" as="geometry" />
        </mxCell>
        <mxCell id="LBJ0s7DJdTyZ2ixBBCLc-24" value="" style="ellipse;whiteSpace=wrap;html=1;aspect=fixed;fontSize=17;fillColor=#dae8fc;strokeColor=#6c8ebf;" vertex="1" parent="1">
          <mxGeometry x="455" y="545" width="30" height="30" as="geometry" />
        </mxCell>
        <mxCell id="LBJ0s7DJdTyZ2ixBBCLc-25" value="" style="ellipse;whiteSpace=wrap;html=1;aspect=fixed;fontSize=17;fillColor=#dae8fc;strokeColor=#6c8ebf;" vertex="1" parent="1">
          <mxGeometry x="385" y="220" width="30" height="30" as="geometry" />
        </mxCell>
        <mxCell id="LBJ0s7DJdTyZ2ixBBCLc-26" value="" style="ellipse;whiteSpace=wrap;html=1;aspect=fixed;fontSize=17;fillColor=#dae8fc;strokeColor=#6c8ebf;" vertex="1" parent="1">
          <mxGeometry x="415" y="245" width="30" height="30" as="geometry" />
        </mxCell>
        <mxCell id="LBJ0s7DJdTyZ2ixBBCLc-27" value="" style="ellipse;whiteSpace=wrap;html=1;aspect=fixed;fontSize=17;fillColor=#dae8fc;strokeColor=#6c8ebf;" vertex="1" parent="1">
          <mxGeometry x="455" y="245" width="30" height="30" as="geometry" />
        </mxCell>
        <mxCell id="LBJ0s7DJdTyZ2ixBBCLc-28" value="" style="ellipse;whiteSpace=wrap;html=1;aspect=fixed;fontSize=17;fillColor=#dae8fc;strokeColor=#6c8ebf;" vertex="1" parent="1">
          <mxGeometry x="385" y="320" width="30" height="30" as="geometry" />
        </mxCell>
        <mxCell id="LBJ0s7DJdTyZ2ixBBCLc-29" value="" style="ellipse;whiteSpace=wrap;html=1;aspect=fixed;fontSize=17;fillColor=#dae8fc;strokeColor=#6c8ebf;" vertex="1" parent="1">
          <mxGeometry x="415" y="345" width="30" height="30" as="geometry" />
        </mxCell>
        <mxCell id="LBJ0s7DJdTyZ2ixBBCLc-30" value="" style="ellipse;whiteSpace=wrap;html=1;aspect=fixed;fontSize=17;fillColor=#dae8fc;strokeColor=#6c8ebf;" vertex="1" parent="1">
          <mxGeometry x="455" y="345" width="30" height="30" as="geometry" />
        </mxCell>
        <mxCell id="LBJ0s7DJdTyZ2ixBBCLc-31" value="" style="ellipse;whiteSpace=wrap;html=1;aspect=fixed;fontSize=17;fillColor=#dae8fc;strokeColor=#6c8ebf;" vertex="1" parent="1">
          <mxGeometry x="385" y="420" width="30" height="30" as="geometry" />
        </mxCell>
        <mxCell id="LBJ0s7DJdTyZ2ixBBCLc-32" value="" style="ellipse;whiteSpace=wrap;html=1;aspect=fixed;fontSize=17;fillColor=#dae8fc;strokeColor=#6c8ebf;" vertex="1" parent="1">
          <mxGeometry x="415" y="445" width="30" height="30" as="geometry" />
        </mxCell>
        <mxCell id="LBJ0s7DJdTyZ2ixBBCLc-34" value="" style="ellipse;whiteSpace=wrap;html=1;aspect=fixed;fontSize=17;fillColor=#dae8fc;strokeColor=#6c8ebf;" vertex="1" parent="1">
          <mxGeometry x="385" y="520" width="30" height="30" as="geometry" />
        </mxCell>
        <mxCell id="LBJ0s7DJdTyZ2ixBBCLc-35" value="&lt;font color=&quot;#6666ff&quot;&gt;&lt;font style=&quot;font-size: 12px&quot;&gt;Role&lt;/font&gt;&lt;br&gt;&lt;/font&gt;" style="text;html=1;strokeColor=#9673a6;fillColor=#e1d5e7;align=center;verticalAlign=middle;whiteSpace=wrap;rounded=0;fontSize=17;" vertex="1" parent="1">
          <mxGeometry x="365" y="255" width="40" height="30" as="geometry" />
        </mxCell>
        <mxCell id="LBJ0s7DJdTyZ2ixBBCLc-37" value="&lt;font color=&quot;#6666ff&quot;&gt;&lt;font style=&quot;font-size: 12px&quot;&gt;Role&lt;/font&gt;&lt;br&gt;&lt;/font&gt;" style="text;html=1;strokeColor=#9673a6;fillColor=#e1d5e7;align=center;verticalAlign=middle;whiteSpace=wrap;rounded=0;fontSize=17;" vertex="1" parent="1">
          <mxGeometry x="365" y="555" width="40" height="30" as="geometry" />
        </mxCell>
        <mxCell id="LBJ0s7DJdTyZ2ixBBCLc-38" value="&lt;font color=&quot;#6666ff&quot;&gt;&lt;font style=&quot;font-size: 12px&quot;&gt;Role&lt;/font&gt;&lt;br&gt;&lt;/font&gt;" style="text;html=1;strokeColor=#9673a6;fillColor=#e1d5e7;align=center;verticalAlign=middle;whiteSpace=wrap;rounded=0;fontSize=17;" vertex="1" parent="1">
          <mxGeometry x="365" y="455" width="40" height="30" as="geometry" />
        </mxCell>
        <mxCell id="LBJ0s7DJdTyZ2ixBBCLc-39" value="&lt;font color=&quot;#6666ff&quot;&gt;&lt;font style=&quot;font-size: 12px&quot;&gt;Role&lt;/font&gt;&lt;br&gt;&lt;/font&gt;" style="text;html=1;strokeColor=#9673a6;fillColor=#e1d5e7;align=center;verticalAlign=middle;whiteSpace=wrap;rounded=0;fontSize=17;" vertex="1" parent="1">
          <mxGeometry x="365" y="355" width="40" height="30" as="geometry" />
        </mxCell>
        <mxCell id="LBJ0s7DJdTyZ2ixBBCLc-41" value="&lt;font color=&quot;#6666ff&quot;&gt;&lt;font style=&quot;font-size: 12px&quot;&gt;RoleBinding&lt;/font&gt;&lt;br&gt;&lt;/font&gt;" style="text;html=1;strokeColor=#9673a6;fillColor=#e1d5e7;align=center;verticalAlign=middle;whiteSpace=wrap;rounded=0;fontSize=17;" vertex="1" parent="1">
          <mxGeometry x="495" y="255" width="70" height="30" as="geometry" />
        </mxCell>
        <mxCell id="LBJ0s7DJdTyZ2ixBBCLc-42" value="&lt;font color=&quot;#6666ff&quot;&gt;&lt;font style=&quot;font-size: 12px&quot;&gt;RoleBinding&lt;/font&gt;&lt;br&gt;&lt;/font&gt;" style="text;html=1;strokeColor=#9673a6;fillColor=#e1d5e7;align=center;verticalAlign=middle;whiteSpace=wrap;rounded=0;fontSize=17;" vertex="1" parent="1">
          <mxGeometry x="495" y="355" width="70" height="30" as="geometry" />
        </mxCell>
        <mxCell id="LBJ0s7DJdTyZ2ixBBCLc-43" value="&lt;font color=&quot;#6666ff&quot;&gt;&lt;font style=&quot;font-size: 12px&quot;&gt;RoleBinding&lt;/font&gt;&lt;br&gt;&lt;/font&gt;" style="text;html=1;strokeColor=#9673a6;fillColor=#e1d5e7;align=center;verticalAlign=middle;whiteSpace=wrap;rounded=0;fontSize=17;" vertex="1" parent="1">
          <mxGeometry x="494" y="455" width="70" height="30" as="geometry" />
        </mxCell>
        <mxCell id="LBJ0s7DJdTyZ2ixBBCLc-44" value="&lt;font color=&quot;#6666ff&quot;&gt;&lt;font style=&quot;font-size: 12px&quot;&gt;RoleBinding&lt;/font&gt;&lt;br&gt;&lt;/font&gt;" style="text;html=1;strokeColor=#9673a6;fillColor=#e1d5e7;align=center;verticalAlign=middle;whiteSpace=wrap;rounded=0;fontSize=17;" vertex="1" parent="1">
          <mxGeometry x="494" y="555" width="70" height="30" as="geometry" />
        </mxCell>
        <mxCell id="LBJ0s7DJdTyZ2ixBBCLc-46" value="&lt;font style=&quot;font-size: 18px&quot; color=&quot;#4d9900&quot;&gt;get list watch...&lt;/font&gt;" style="ellipse;whiteSpace=wrap;html=1;fontSize=12;fillColor=#ffe6cc;strokeColor=#d79b00;" vertex="1" parent="1">
          <mxGeometry x="105" y="295" width="150" height="100" as="geometry" />
        </mxCell>
        <mxCell id="LBJ0s7DJdTyZ2ixBBCLc-47" value="&lt;font style=&quot;font-size: 15px&quot; color=&quot;#99004d&quot;&gt;Role/ClusterRole&lt;/font&gt;" style="text;html=1;strokeColor=none;fillColor=none;align=center;verticalAlign=middle;whiteSpace=wrap;rounded=0;fontSize=18;fontColor=#4D9900;" vertex="1" parent="1">
          <mxGeometry x="80" y="230" width="125" height="30" as="geometry" />
        </mxCell>
        <mxCell id="LBJ0s7DJdTyZ2ixBBCLc-48" value="&lt;font color=&quot;#ff0000&quot;&gt;Role是option的集合&lt;/font&gt;" style="text;html=1;strokeColor=none;fillColor=none;align=center;verticalAlign=middle;whiteSpace=wrap;rounded=0;fontSize=15;fontColor=#99004D;" vertex="1" parent="1">
          <mxGeometry x="110" y="200" width="140" height="30" as="geometry" />
        </mxCell>
        <mxCell id="LBJ0s7DJdTyZ2ixBBCLc-51" value="" style="whiteSpace=wrap;html=1;aspect=fixed;fontSize=15;fontColor=#333333;fillColor=#f5f5f5;strokeColor=#666666;" vertex="1" parent="1">
          <mxGeometry x="655" y="237.5" width="197.5" height="197.5" as="geometry" />
        </mxCell>
        <mxCell id="LBJ0s7DJdTyZ2ixBBCLc-40" value="&lt;font color=&quot;#990099&quot;&gt;ClusterRoleBinding&lt;br&gt;Rolebinding&lt;/font&gt;" style="text;html=1;align=center;verticalAlign=middle;whiteSpace=wrap;rounded=0;fontSize=17;" vertex="1" parent="1">
          <mxGeometry x="655" y="242.25" width="160" height="30" as="geometry" />
        </mxCell>
        <mxCell id="LBJ0s7DJdTyZ2ixBBCLc-52" value="&lt;font color=&quot;#ff0000&quot;&gt;Rolebinding是一组用户或者是一个用户组的集合&lt;/font&gt;" style="text;html=1;strokeColor=none;fillColor=none;align=center;verticalAlign=middle;whiteSpace=wrap;rounded=0;fontSize=15;fontColor=#99004D;" vertex="1" parent="1">
          <mxGeometry x="615" y="200" width="250" height="30" as="geometry" />
        </mxCell>
        <mxCell id="LBJ0s7DJdTyZ2ixBBCLc-53" value="&lt;font color=&quot;#4d9900&quot;&gt;&lt;span style=&quot;font-size: 18px&quot;&gt;user1;user2;&lt;br&gt;Group;&lt;br&gt;serviceAccount&lt;/span&gt;&lt;/font&gt;" style="ellipse;whiteSpace=wrap;html=1;fontSize=12;fillColor=#ffe6cc;strokeColor=#d79b00;" vertex="1" parent="1">
          <mxGeometry x="678.75" y="300" width="150" height="120" as="geometry" />
        </mxCell>
        <mxCell id="LBJ0s7DJdTyZ2ixBBCLc-54" value="" style="rounded=0;whiteSpace=wrap;html=1;fontSize=15;fillColor=#f9f7ed;strokeColor=#36393d;" vertex="1" parent="1">
          <mxGeometry x="645" y="505" width="220" height="115" as="geometry" />
        </mxCell>
        <mxCell id="LBJ0s7DJdTyZ2ixBBCLc-55" value="bind关系" style="text;html=1;strokeColor=none;fillColor=none;align=center;verticalAlign=middle;whiteSpace=wrap;rounded=0;fontSize=15;fontColor=#990099;" vertex="1" parent="1">
          <mxGeometry x="711.87" y="505" width="86.25" height="30" as="geometry" />
        </mxCell>
        <mxCell id="LBJ0s7DJdTyZ2ixBBCLc-56" value="Role:Rolebinding&lt;br&gt;Role:ClusterRolebinding&lt;br&gt;ClusterRole:ClusterRolebinding" style="text;html=1;strokeColor=none;fillColor=none;align=center;verticalAlign=middle;whiteSpace=wrap;rounded=0;fontSize=15;fontColor=#990099;" vertex="1" parent="1">
          <mxGeometry x="631.87" y="545" width="243.75" height="80" as="geometry" />
        </mxCell>
        <mxCell id="LBJ0s7DJdTyZ2ixBBCLc-57" value="&lt;font color=&quot;#0000cc&quot; style=&quot;font-size: 20px&quot;&gt;RBAC权限关系&lt;/font&gt;" style="text;html=1;strokeColor=none;fillColor=none;align=center;verticalAlign=middle;whiteSpace=wrap;rounded=0;fontSize=15;fontColor=#990099;" vertex="1" parent="1">
          <mxGeometry x="387.5" y="130" width="155" height="30" as="geometry" />
        </mxCell>
      </root>
    </mxGraphModel>
  </diagram>
</mxfile>
